<?xml version="1.0" standalone="no"?>
<!DOCTYPE svg PUBLIC "-//W3C//DTD SVG 1.1//EN" "http://www.w3.org/Graphics/SVG/1.1/DTD/svg11.dtd" >
<svg xmlns="http://www.w3.org/2000/svg">
<metadata></metadata>
<defs>
<font id="platz_stencilregular" horiz-adv-x="1024" >
<font-face units-per-em="2048" ascent="1536" descent="-512" />
<missing-glyph horiz-adv-x="500" />
<glyph horiz-adv-x="0" />
<glyph horiz-adv-x="682" />
<glyph unicode=" " />
<glyph unicode="!" horiz-adv-x="542" d="M147 143q0 59 41 97q39 39 95 39q51 0 96 -39q37 -40 37 -99q0 -58 -37 -98q-42 -39 -96 -39q-58 0 -97 39q-39 36 -39 100zM172 373v596h195v602h-168v-602h-27v630h219v-1226h-219zM266 991v559h27v-559h-27z" />
<glyph unicode="&#x22;" horiz-adv-x="786" d="M68 1083l92 217l90 222l145 -56l-88 -174l-110 -262zM94 1094l92 -37l99 231h-107zM137 1102l70 168h20l-71 -174zM369 1087l161 449l166 -63l-114 -222l-105 -209zM457 1276h114l95 184l-123 47zM508 1294l76 176l16 -6l-72 -170h-20z" />
<glyph unicode="%" horiz-adv-x="1984" d="M125 1208q0 147 111 252q109 103 262 103q98 0 166 -23.5t120 -75.5q113 -107 113 -260q0 -154 -113 -264q-52 -49 -120.5 -71.5t-165.5 -24.5h-6q-155 0 -261 106q-106 109 -106 258zM299 1206q0 -89 55 -141q60 -57 142 -57h2q55 3 88.5 16t64.5 43q51 51 51 135 t-51 135q-65 65 -153 62h-2q-81 0 -142 -58q-55 -55 -55 -135zM498 866q178 3 268 90q106 103 106 248q0 143 -106 246q-90 90 -268 90v-121q105 0 170 -65q57 -54 57 -152q0 -95 -59 -151q-64 -64 -168 -64v-121zM508 59l878 1516l109 -62l-881 -1521zM518 915v25 q117 0 195 78q71 68 71 184q0 146 -94 215q-43 32 -81.5 41.5t-88.5 9.5v25q51 0 93.5 -11t88.5 -46q105 -76 105 -234q0 -124 -76 -203q-90 -84 -213 -84zM1098 369q0 145 110 249q111 105 260 105h5q176 0 276 -100q111 -102 111 -261q0 -154 -119 -264q-94 -94 -268 -94 h-9q-152 0 -260 105q-106 109 -106 260zM1272 365q0 -85 55 -140q62 -59 141 -59h5q94 3 151 63q51 54 51 133q0 84 -57 138q-66 61 -150 61q-80 0 -139 -59q-57 -54 -57 -137zM1473 25q87 1 145 22.5t108 67.5q111 111 111 247q0 144 -102 246q-98 91 -262 94v-120 q95 0 163 -68q62 -62 62 -152q0 -93 -58 -151q-65 -65 -167 -68v-118zM1493 74v24q108 3 182 72q86 80 80 213q-5 113 -94 188q-42 35 -81 48.5t-87 13.5v24q52 0 94 -15t90 -52q98 -76 103 -207q6 -141 -88 -229q-82 -77 -199 -80z" />
<glyph unicode="&#x26;" horiz-adv-x="1581" d="M90 424q0 115 60 219.5t169 181.5q72 49 101 67q3 2 4 3l35 27l18 -21l-39 -27l-3 -2q-26 -16 -101 -69q-107 -77 -166 -180q-51 -91 -51 -199q0 -84 33 -168q33 -73 102 -139q62 -59 158.5 -93t197.5 -34q53 0 98.5 7.5t102 29t114 66.5t111.5 112l-133 164 q-1 -1 -8.5 -9.5t-17.5 -20t-19 -20.5q-160 -151 -276 -151q-98 0 -181 80h-2q-78 81 -78 180q0 68 54 131q13 15 51 46t70 55l32 24l76 49l-127 166l174 121l131 -160l-176 -127l14 -16l-73 -53q-115 -81 -152 -121q-47 -56 -47 -115q0 -90 72 -162q74 -74 162 -71 q66 3 119.5 36t134.5 111q47 49 47 51l16 -20l154 159l2 -2l137 -161l-156 -164l19 -17q-102 -129 -211 -177t-234 -48q-103 0 -205.5 36t-173.5 99q-139 133 -139 326zM213.5 484.5q28.5 124.5 144.5 213.5q28 22 66 49t62 43l24 17l14 -23q-88 -59 -151 -108 q-105 -83 -131 -196.5t41 -225.5q53 -85 144 -130t210 -36q81 6 154 53t153 135l19 -20q-84 -91 -159 -139.5t-161 -55.5q-126 -10 -224.5 39.5t-158.5 141.5q-75 118 -46.5 242.5zM319 1225q0 153 99 248q101 94 260 94q153 0 256 -92q100 -90 100 -232q0 -98 -53 -178 q-57 -78 -170 -164l-18 -14l-131 157l8 7q51 38 78 63q20 16 47 43q28 39 28 88q0 60 -41 98q-43 37 -108 37q-59 0 -101 -39q-43 -34 -43 -92q0 -63 52 -131l53 -61l10 -13l-182 -124q-16 23 -40 59.5t-64 118.5t-40 127zM616 715l181 129l237 -291l-153 -160zM1053 188 l151 160l13 -10l4 -6l-2 4l-2 2l-9 10l11 -12l268 -332h-283l-125 152zM1071 551l8 8q11 11 13 14q14 15 37.5 41t33.5 37q28 37 74 94l147 -153q-38 -53 -71 -90q-32 -37 -82 -94l-25 -23z" />
<glyph unicode="'" d="M426 1534h186l-51 -510h-112zM446 1513l13 -221h106l23 221h-142zM502 1315l2 178h20v-178h-22z" />
<glyph unicode="(" horiz-adv-x="806" d="M260 705v43h43v-43q0 -513 176 -898l101 50q-86 215 -125 405q-15 80 -29 207q-12 140 -12 236v43h-154q3 533 191 921l180 -72q-97 -221 -133 -421q-16 -84 -29 -201q-12 -144 -12 -227v-43q0 -100 12 -232q16 -143 29 -205q38 -204 131 -411l6 -21l-172 -86l-12 19 q-191 400 -191 936zM338 721h41q0 -274 33 -430q61 -285 129 -426l-39 -21q-46 117 -78 227t-40.5 155t-8.5 53q-19 95 -28 230.5t-9 211.5z" />
<glyph unicode=")" d="M389 -162l6 21q93 236 125 411q37 176 37 428v39q0 243 -37 428q-44 212 -129 416l172 72q180 -384 180 -916v-39q0 -533 -182 -927l-6 -19zM438 -141l97 -47q165 375 165 886v39h-102v-39q0 -236 -37 -440q-42 -200 -123 -399zM479 -133q93 245 113 391q37 213 37 457 h39q0 -87 -1.5 -137.5t-10.5 -142t-27 -185.5q-16 -86 -36.5 -163t-36 -120t-44.5 -117z" />
<glyph unicode="*" d="M229 1282l39 121l156 -62l-31 -102zM297 1092l109 131l86 -64l-93 -143zM412 1239l28 100l-10 195h133l-12 -195l33 -100l-86 -61zM446 1520l9 -179h82l10 179h-101zM487 1362v139h17v-139h-17zM510 1165l84 64l108 -133l-100 -74zM567 1346l158 59l41 -119l-166 -43z " />
<glyph unicode="+" horiz-adv-x="923" d="M119 621v120h280v-120h-280zM399 332v289h15v-275h118v275h15v-289h-148zM399 741v283h148v-283h-15v267h-118v-267h-15zM414 621v120h118v-120h-118zM461 365v235h18v-235h-18zM461 760v227h18v-227h-18zM547 621v120h280v-120h-280z" />
<glyph unicode="," horiz-adv-x="477" d="M51 -242l117 281l92 244l164 -68l-113 -246l-114 -276zM82 -229l102 -47l105 251l-101 50zM127 -225l96 215l21 -8l-94 -218z" />
<glyph unicode="-" d="M205 612v205h485v-205h-485zM229 637h437v156h-437v-156zM252 700v25h393v-25h-393z" />
<glyph unicode="." horiz-adv-x="409" d="M102 102q0 43 30 73t73 30t72.5 -30t29.5 -73t-29.5 -72.5t-72.5 -29.5t-73 29.5t-30 72.5z" />
<glyph unicode="/" horiz-adv-x="1071" d="M129 90l674 1550l211 -104l-674 -1552zM473 827l170 -90l342 787l-170 90zM555 809l324 745l18 -10l-324 -743z" />
<glyph unicode="0" horiz-adv-x="1220" d="M86 791q0 362 170 577q150 194 360 197h2q229 0 377 -189q84 -113 127 -258t43 -338q0 -192 -43 -334q-42 -146 -127 -260q-146 -186 -377 -186q-208 0 -362 195q-170 215 -170 596zM311 788q0 -247 88 -415q85 -163 217 -166h2q121 0 213 170q87 159 87 403 q0 246 -87 408q-91 168 -213 168h-2q-128 0 -215 -162q-90 -166 -90 -406zM618 25q114 0 195 41q89 44 162 135q81 106 125 252q43 153 43 327q0 177 -43 330q-44 146 -125 252q-70 90 -162 135q-79 43 -195 43v-160q136 0 234 -180q90 -167 90 -420q0 -252 -90 -413 q-99 -185 -234 -185v-157zM641 1448v25q58 0 116 -26t112 -80.5t95 -130t66 -182t25 -229.5q0 -315 -101 -510q-55 -101 -142.5 -162t-168.5 -61v25q74 0 156 57.5t133 153.5q98 178 98 497q0 147 -35.5 268.5t-92.5 197t-125 116.5t-136 41z" />
<glyph unicode="1" horiz-adv-x="589" d="M63 1321l111 215h322v-1534h-203v1319h-230zM317 756h154v753h-154v-753zM381 776v713h25v-713h-25z" />
<glyph unicode="2" horiz-adv-x="1124" d="M49 0l172 215h836v-215h-1008zM98 1085q52 480 482 480q205 0 348 -131q141 -132 141 -326q0 -124 -65 -242q-32 -60 -97 -147q-144 -175 -164 -199l-206 -248l-27 -32h-279l349 424q55 63 131 161q49 66 80 119q55 91 55 166q0 105 -74 176q-78 72 -184 72 q-226 0 -264 -273h-226zM340 23l694 2v165l-551 -2zM424 92l20 25h570v-25h-590z" />
<glyph unicode="3" horiz-adv-x="1089" d="M43 438h211q17 -108 86 -170q65 -53 168 -53q110 0 180 70q72 78 72 190q0 152 -109 217q-56 39 -188 39v199h12q128 0 172 31q82 52 82 172q0 91 -59 147q-60 57 -154 57q-83 0 -133 -41q-45 -42 -70 -151l-2 -10h-239l2 14q35 217 141 317q109 103 303 103 q200 0 322 -119q125 -122 125 -309q0 -104 -43 -189q-42 -82 -115 -137q168 -110 168 -350q0 -203 -133 -330q-132 -129 -340 -129q-265 0 -389 201q-55 82 -70 231zM98 1159h195q26 105 76 152v2q50 47 147 47q107 0 168 -64q68 -59 68 -163q0 -134 -93 -193 q-54 -33 -174 -33v-80h303q154 117 154 314q0 86 -29 162q-31 76 -90 129q-112 112 -305 112q-185 0 -289 -94q-97 -97 -131 -291zM180 1178q21 119 90 190q85 85 232 92q140 6 239 -67q117 -95 123 -250q6 -122 -69 -211q-32 -38 -84.5 -62t-69.5 -24l-72 -2q56 8 116 36.5 t95 67.5q34 40 47 84t13 107q0 140 -113 235q-92 70 -223 64q-147 -11 -219 -88q-30 -32 -55 -87t-27 -85h-23z" />
<glyph unicode="4" horiz-adv-x="1230" d="M39 231l135 197l621 883v2l221 321v-1183h-221v477l-357 -496h336v-201h-735zM209 432h197l389 541v293zM301 453l473 665v-47l-440 -618h-33zM795 4v209h221v-209h-221zM795 231v201h221v-201h-221zM1036 231v201h158v-201h-158z" />
<glyph unicode="5" horiz-adv-x="1214" d="M80 283l170 143q71 -117 143 -168q67 -47 174 -47q136 0 228 92q90 101 90 238q0 143 -90 233q-91 94 -226 94q-27 0 -77 -8l-7 -2q-107 -23 -188 -117l-4 -6h-88l182 602l62 201h614v-211h-432l-78 -266q4 1 14 2t13 2h28q221 0 357 -145q141 -150 141 -373 q0 -232 -160 -389q-157 -154 -399 -154q-293 0 -467 279zM240 762h41q79 91 190 119l133 446h-192zM338 842l149 467h27l-139 -443z" />
<glyph unicode="6" horiz-adv-x="1067" d="M33 467q0 129 80 274l2 2l532 797l176 -133l-340 -483q19 0 35 4q8 0 18.5 1t12.5 1q167 0 291 -133q121 -133 121 -316q0 -195 -134 -338q-142 -139 -327 -139q-186 0 -328 139q-139 139 -139 324zM160 766q101 103 289 149l337 486l-133 102q-477 -712 -493 -737z M236 469q0 -109 75 -190q75 -78 187 -78q109 0 184 78q76 79 76 186q0 118 -76 194q-75 78 -186 78q-110 0 -185 -78t-75 -190zM313 891l381 549l21 -15l-357 -514z" />
<glyph unicode="7" horiz-adv-x="1241" d="M66 1300v234l888 -2h248l-125 -207h-241l-19 -25h238l-793 -1300l-174 111l692 1134l33 55h-747zM92 1327h744l104 180l-848 2v-182zM113 1407v27h761l-14 -27h-747z" />
<glyph unicode="8" horiz-adv-x="1099" d="M61 465q0 256 201 360q-162 117 -162 324q0 189 123 309q119 119 293 125h31q185 0 315 -133q123 -123 123 -313q0 -189 -147 -312q79 -54 125 -137q53 -95 53 -215q0 -203 -131 -334q-57 -60 -152 -100q-94 -33 -188 -33h-33v2q-192 6 -315 129q-136 133 -136 328z M281 473q0 -106 73 -182q68 -74 166 -74h25q95 0 160 68q33 34 50 87.5t17 102.5t-19 97.5t-51 82.5q-62 68 -159 68h-25q-95 -3 -164 -72q-73 -76 -73 -178zM307 1149q0 -92 66 -164q64 -64 145 -67h29q83 0 143 63q64 64 64 154q0 45 -17.5 96t-46.5 80q-60 63 -143 63 h-29q-82 -3 -143 -67q-68 -71 -68 -158zM520 33h25q99 0 178 33q78 29 145 92q61 64 90 141q31 88 31 174q0 115 -49 203t-133 135l-19 10l17 13q79 64 117 135q36 71 36 168q0 88 -28 161q-27 73 -86 132q-121 124 -297 124h-27v-153h27q95 0 162 -70q33 -33 52 -89.5 t19 -106.5q0 -103 -71 -174q-70 -70 -162 -70h-27v-141h23q105 0 178 -76q78 -81 78 -199q0 -54 -19.5 -112t-56.5 -97q-73 -76 -178 -76h-25v-157zM541 1464v27q126 0 213 -64q53 -38 89 -107.5t40 -150.5q11 -175 -92 -278q-26 -26 -64.5 -46.5t-64.5 -25.5 q102 -32 165 -108q84 -101 84 -226q0 -166 -94 -278q-47 -52 -121 -81.5t-153 -29.5v27q74 0 144 28t110 76q88 98 88 258q0 124 -78 211q-95 106 -264 109v26q20 1 38 3t29 4t19 4l12 3l4 1q24 7 40.5 13.5t46 22t49.5 38.5t40 56t29 82.5t6 110.5q-4 74 -37.5 138.5 t-81.5 99.5q-77 57 -196 57z" />
<glyph unicode="9" horiz-adv-x="1077" d="M33 1083q0 204 143 347q148 145 346 145q204 0 350 -143q150 -144 150 -336q0 -127 -86 -283h-2l-567 -823l-185 137l363 500q-32 -4 -41 -4q-12 -2 -33 -2q-177 0 -309 135q-129 135 -129 327zM219 133l141 -106q509 736 525 761q-121 -119 -305 -151zM250 1098 q0 -118 80 -201q83 -80 196 -80q116 0 199 80q80 83 80 199q0 114 -80 194q-82 82 -199 82q-114 0 -196 -82q-80 -80 -80 -192zM293 111l375 524l49 18l-404 -555z" />
<glyph unicode=":" d="M354 156q0 53 41 94q43 43 97 43h2q64 0 112 -39q45 -36 45 -100q0 -67 -47 -105q-41 -33 -110 -33h-2q-61 0 -97 39q-41 41 -41 101zM354 903q0 53 41 94t99 41q65 0 112 -41q41 -41 41 -98q0 -52 -43 -98q-40 -37 -110 -37h-2q-54 0 -97 37q-41 41 -41 102zM494 51 q57 0 88.5 27.5t31.5 75.5q0 49 -34 75.5t-86 26.5v-205zM494 799q52 0 84.5 25t33.5 75q1 46 -32 75.5t-86 29.5v-205zM512 61v31q59 0 59 66q0 28 -21.5 41.5t-37.5 13.5v33q32 0 62 -23t30 -65q0 -47 -26 -72t-66 -25zM512 809v31q30 0 44.5 20t14.5 43q0 27 -22.5 43.5 t-36.5 16.5v30q28 0 59 -22t31 -68q0 -41 -26.5 -67.5t-63.5 -26.5z" />
<glyph unicode=";" horiz-adv-x="696" d="M111 -186l110 276l115 283l184 -74l-137 -283l-131 -260zM244 80l116 -49l123 256l-133 51zM281 891q0 54 36 90q36 39 91 39q56 0 92 -39q37 -37 37 -90q0 -52 -37 -92q-37 -37 -92 -37q-53 0 -93 37q-34 40 -34 92zM297 78l98 219l23 -10l-96 -219z" />
<glyph unicode="=" d="M190 719v104h672v-104h-672zM190 920v104h672v-104h-672zM518 733h330v76h-330v-76zM518 934h330v76h-330v-76zM537 965v16h292v-16h-292zM539 764v14h288v-14h-288z" />
<glyph unicode="?" horiz-adv-x="878" d="M82 1178v34q0 148 102 250q101 101 254 101q154 0 260 -103q105 -99 105 -252q0 -42 -8 -75q-38 -136 -111 -201q-66 -60 -254 -119q-79 -24 -100 -104q-2 -8 -2 -25q0 -24 6 -45q20 -30 24 -35q14 -14 37 -24q21 -9 43 -9q109 0 115 148h215q0 -149 -76 -234 q-101 -116 -258 -116q-140 0 -229 96q-92 92 -92 235v19q6 118 61 182q57 68 207 123q118 43 147 68q5 3 20 19t23 32q15 37 15 69q0 65 -39 107q-40 37 -107 37t-104 -37q-39 -39 -39 -105q0 -28 12 -81h-223q-1 8 -2 23t-2 22zM139 719h168q23 92 117 119q173 54 244 112 q67 64 100 183h-174q-14 -29 -47 -62q-4 -4 -9 -7.5t-11.5 -7t-11.5 -6.5t-15 -7.5t-16 -7t-19.5 -8t-21.5 -8.5t-25.5 -10.5t-28.5 -11.5q-136 -46 -196 -112q-51 -60 -54 -166zM211 737q0 42 21 77t73 73q31 23 118.5 52t98.5 34q115 46 133 135h27q-5 -39 -44.5 -85 t-105.5 -73q-2 -1 -91.5 -32t-118.5 -52q-47 -34 -65.5 -63.5t-18.5 -65.5h-27zM309 137q0 53 41 94q40 37 92 37q55 0 95 -37q38 -38 38 -96q0 -56 -38 -94q-40 -37 -93 -37q-57 0 -94 37q-41 41 -41 96z" />
<glyph unicode="@" horiz-adv-x="1771" d="M104 760q0 165 58 293q53 131 168 243q112 109 254 166q127 51 305 51q152 0 280 -45q135 -54 230 -137q90 -79 155 -217q58 -129 58 -268q0 -218 -107 -365q-115 -155 -262 -155q-120 0 -162 110q-114 -114 -254 -114q-153 0 -258 108q-98 113 -98 285q0 189 113 299 q109 121 282 121q159 0 252 -121q28 -31 64.5 -99t44.5 -116l-15 -170q-6 -27 -6 -51v-46q0 -71 60 -71q81 0 145 117q64 113 64 256q0 151 -70 272q-10 17 -21.5 32t-26.5 29.5t-23 22t-24 21t-18 14.5q-167 139 -403 139q-123 0 -232 -39q-109 -48 -192 -131 q-92 -92 -131 -199q-43 -100 -43 -231q0 -144 61 -275q67 -134 176 -210q147 -111 381 -111q217 0 451 111l26 10l58 -152l-21 -12q-247 -119 -514 -119q-292 0 -493 141q-146 104 -232 269q-80 184 -80 344zM125 760q0 -158 80 -336q83 -160 223 -258q89 -66 217 -103 q115 -36 264 -36q258 0 502 116l2 4l-39 113l-4 -4q-239 -109 -461 -109q-237 0 -395 113q-106 73 -184 219q-64 144 -64 285q0 128 45 240q42 106 135 202q101 94 201 133q119 50 242 50q238 0 416 -146q83 -67 118 -123h103q-50 110 -142 193q-100 89 -221 133 q-115 47 -274 47q-154 0 -299 -49q-133 -56 -242 -162q-113 -104 -168 -235q-55 -128 -55 -287zM180 817q4 127 68.5 246t171.5 213q98 85 216.5 130.5t235.5 43.5q185 -6 330 -66q120 -56 203 -145q22 -21 43.5 -50t24.5 -40h-25q-42 59 -59 76q-80 88 -193 139 q-123 56 -324 63q-113 3 -227 -42t-211 -128q-105 -91 -167 -204.5t-66 -235.5q-8 -230 98 -420q95 -155 248 -225q116 -55 291 -72q104 -7 247 11q61 8 148 37.5t129 50.5l8 -23q-17 -11 -119 -45t-161 -43q-148 -18 -252 -10q-192 17 -303 76q-160 76 -254 233 q-110 185 -101 430zM659 705q0 -95 50 -158q50 -62 125 -62q100 0 174 80q73 89 73 193q0 92 -59 145q-58 58 -148 58q-98 0 -153 -72q-62 -78 -62 -184zM1122 1049l8 110h144l-37 -307q-8 39 -46 99t-69 98z" />
<glyph unicode="A" horiz-adv-x="1466" d="M43 8l147 320h216l-144 -320h-219zM201 352l92 197v2l455 987l434 -989l88 -197h-217l-2 10l-82 193h-23l82 -203h-584l78 187l8 16h-24l-84 -193l-6 -10h-215zM322 555h184l237 524l226 -524h186l-410 926zM395 575l346 740l334 -740h-28l-306 670l-315 -670h-31z M532 555h412l-201 467zM1067 328h213l143 -320h-221z" />
<glyph unicode="B" horiz-adv-x="1007" d="M29 4v203h217v-178h170q12 0 51.5 -0.5t54 0t42.5 1.5t47.5 4.5t37.5 8.5q92 27 166 104q64 61 94 134q31 76 31 161q0 133 -70 234q-66 96 -122 108l-29 7l29 6q43 10 86 61.5t63 102.5q33 93 33 147q0 84 -39 176q-40 87 -100 139q-58 58 -150 80q-55 13 -344 13h-51 v-177h141q104 0 151.5 -9t86.5 -36q98 -69 98 -190q0 -72 -21 -113t-65 -71q-35 -26 -84 -36t-166 -10h-141v-182h-217v182h217v25h-217v418h217v22h-217v199h217v2h51q297 0 348 -14q93 -20 162 -82q68 -62 106 -152q41 -97 41 -184q0 -181 -147 -317q20 -16 36 -35t48 -66 q74 -109 74 -248q0 -184 -131 -315q-83 -80 -179 -109q-65 -16 -176 -16q-10 0 -31.5 1t-31.5 1h-387zM29 231v439h217v22h143q197 0 268 -65q78 -72 78 -176q0 -109 -82 -179q-74 -65 -237 -65h-170v24h-217zM246 231h170q152 0 221 60q74 59 74 160q0 93 -70 157 q-63 60 -252 60h-143v-437zM246 899h141q115 0 157.5 7t71.5 28q40 29 61 66.5t21 103.5q0 115 -90 174q-35 23 -78 30t-143 7h-141v-416zM266 94v25h41q11 0 52.5 -1.5t62 -1.5t60.5 1.5t67 8t60.5 16t61.5 27t52 40.5q44 43 76 104t32 121q0 166 -102 258 q-50 45 -110 67.5t-115 22.5h-238v31h238l49 4q41 4 60.5 7.5t57 21.5t68.5 49q51 51 68.5 102.5t17.5 137.5q0 78 -40 136.5t-95 94.5q-24 15 -53 25.5t-50 16t-64.5 8.5t-63 3.5t-80.5 1t-84 0.5h-29v25h29h74.5t72 -0.5t59.5 -2.5t60 -6t50 -10.5t51.5 -17t44.5 -25.5 q58 -40 100.5 -103t42.5 -146q0 -91 -19.5 -147.5t-74.5 -110.5q-34 -34 -84 -56.5t-101 -23.5q39 -8 56 -13t50.5 -23.5t67.5 -49.5q111 -99 111 -277q0 -65 -34 -130.5t-81 -110.5q-36 -36 -78.5 -57.5t-97.5 -30t-89 -10t-96 -1.5h-22h-92z" />
<glyph unicode="C" horiz-adv-x="1337" d="M86 758v37q0 279 182 497q233 269 590 269q195 0 381 -109v-260q-192 160 -395 160q-229 0 -381 -162q-151 -157 -154 -383q0 -148 43 -242q40 -90 119 -172q70 -73 170 -117q93 -38 203 -38q119 0 192 36h2q20 8 92 52q47 31 101 75l20 17v-299l-6 -4 q-195 -109 -403 -109q-164 0 -295 55q-139 57 -250 168t-162 242q-49 118 -49 287zM111 758q0 -162 47 -279q52 -128 157 -233q110 -110 240 -162q126 -53 287 -53q200 0 385 102v234q-45 -39 -84 -62q-51 -36 -96 -53q-86 -39 -203 -39q-230 0 -389 162q-84 84 -125 180 q-45 102 -45 240h-174v-37zM180 772h25q0 -172 63 -301q28 -61 85.5 -127t135.5 -117q148 -98 338 -98q99 1 203.5 40t175.5 89v-29q-60 -45 -168.5 -84.5t-210.5 -40.5h-4q-188 0 -350 105q-81 52 -139 119t-90 135q-64 133 -64 309z" />
<glyph unicode="D" horiz-adv-x="1359" d="M90 2v211h225v-211h-225zM90 238v520h225v-520h-225zM90 780v516h225v25h125q145 0 258 -35q118 -40 187 -106q87 -81 133 -179q46 -101 49 -221h176q0 174 -51 299q-51 137 -164 238q-104 99 -248 145q-121 41 -352 47h-113v-188h-225v213h338q236 -6 360 -47 q140 -43 259 -150q116 -110 167 -250q56 -141 56 -307q0 -195 -59.5 -337.5t-182.5 -249.5q-116 -105 -254 -150q-113 -41 -350 -41h-86v211h102q142 0 254 33q103 35 183 106q83 76 123.5 178.5t41.5 245.5q-3 120 -47 213q-42 97 -127 172q-75 72 -176 101 q-106 34 -252 34h-125v-516h-225zM338 1401v24h4h71.5t68 -1t71.5 -3.5t66.5 -7.5t70 -12t64.5 -18t67 -25.5t61 -34.5t62 -45q119 -98 182 -264q39 -96 39 -213h-24q0 113 -37 207q-25 65 -70.5 134.5t-103.5 117.5q-51 41 -111.5 69.5t-109 42t-124.5 20.5t-116.5 8 t-126.5 1h-4z" />
<glyph unicode="E" horiz-adv-x="1030" d="M106 4v203h211v-203h-211zM106 231v478h211v24h576v205h-576v23h-211v346h211v-344h601v-254h-601v-478h-211zM106 733v203h211v-203h-211zM106 1329v205h211v-205h-211zM338 819v25h532v-25h-532zM342 4v203h582v-203h-582zM342 1329v205h582v-205h-582z" />
<glyph unicode="F" horiz-adv-x="946" d="M109 2v711h227v-711h-227zM109 737v211h227v-209h518v211h-518v23h-227v327h227v-325h543v-260h-543v22h-227zM109 1321v211h227v-211h-227zM358 829v25h473v-25h-473zM358 1321v211h521v-211h-521z" />
<glyph unicode="G" horiz-adv-x="1587" d="M88 762q0 176 51 313q57 157 164 264q113 113 252 170q137 58 303 58q173 0 326 -72q144 -70 284 -229l9 -11l-177 -168l-8 11q-93 123 -196 176q-104 59 -236 59q-118 0 -209 -39q-98 -39 -174 -118q-166 -163 -166 -412t176 -406q164 -145 357 -145q163 0 295 111 q133 112 145 266h232q-8 -62 -29 -135q-36 -111 -129 -222q-201 -229 -522 -229q-311 0 -527 223q-221 226 -221 535zM113 764h172q0 254 176 430q159 164 399 164q132 0 246 -60q112 -64 199 -176l137 135q-131 150 -268 218q-146 67 -316 67q-162 0 -293 -55 q-129 -50 -246 -164q-105 -108 -157 -256q-49 -137 -49 -303zM184 784q10 123 49 242q23 67 67.5 133.5t92.5 114.5q102 99 213 143q120 49 252 49q137 0 264 -59l-4 -12l6 12q142 -73 246 -190l-16 -17q-100 113 -242 184q-118 56 -254 56q-133 0 -246 -45 q-105 -44 -202 -138q-108 -108 -152 -239q-40 -118 -49 -234h-25zM893 612v209h367v-209h-367zM1284 612v209h242v-47q0 -77 -10 -162h-232z" />
<glyph unicode="H" horiz-adv-x="1343" d="M102 4v709h226v-709h-226zM102 737v195h226v-195h-226zM102 956v582h226v-580h690v580h223v-582h-223v-22h-690v22h-226zM328 713v24h690v-24h-690zM348 823v23l649 2v-25h-649zM1018 4v709h223v-709h-223zM1018 737v195h223v-195h-223z" />
<glyph unicode="I" horiz-adv-x="411" d="M88 2v1544h236v-1544h-236zM115 29h182v790h-182v-790zM190 49v750h27v-750h-27z" />
<glyph unicode="J" horiz-adv-x="856" d="M98 74l107 192q79 -55 151 -55q101 0 138 76q41 69 41 262v983h223v-983q0 -168 -25 -254q-20 -93 -82 -162q-113 -131 -295 -131q-135 0 -258 72zM559 807h174v700h-174v-700zM633 827v658h24v-658h-24z" />
<glyph unicode="K" horiz-adv-x="1294" d="M78 2v397l225 228v-625h-225zM78 418v284l225 226l588 608h301l-680 -686l709 -852h-336l-543 668l-10 10l-29 -31zM78 721v817h225v-590zM350 694l547 -676h270l-673 813zM424 727l18 18l590 -704h-33z" />
<glyph unicode="L" horiz-adv-x="782" d="M82 1538h240l2 -1309h-23v-227h-215v219zM104 1511l5 -1282h192l-2 1282h-195zM195 252v1237h22v-1237h-22zM324 2v227h381l2 -227h-383z" />
<glyph unicode="M" horiz-adv-x="1771" d="M25 -2l245 1284l146 -375l-158 -909h-233zM279 1317l61 330l137 -308l410 -895l430 936v-2l133 269l57 -310l-147 -372l6 -47l-477 -920l-473 909l8 43zM424 948l465 -887l469 902l2 2l-51 340l-422 -922l-408 895l-55 -328v-2zM469 1047l8 45l412 -846l409 856l7 -47 l-416 -875zM1366 918l152 372l223 -1290h-232z" />
<glyph unicode="N" horiz-adv-x="1503" d="M63 2v1280l230 -229v-1051h-230zM63 1315v332l230 -240l919 -918v-40l-919 917v-279l919 -917v279l230 -230v-330l-225 236l-924 928v32zM313 1174v43l877 -857v-47zM1212 489v1055h230v-1284z" />
<glyph unicode="O" horiz-adv-x="1808" d="M102 817q6 315 238 541q225 219 524 231v-217q-212 -15 -364 -164q-161 -167 -164 -405q6 -265 170 -422q80 -80 174 -117q94 -43 223 -43q241 0 404 166q154 154 163 383h236q-9 -318 -238 -537q-234 -228 -559 -231q-164 0 -298.5 49.5t-256.5 159.5 q-133 121 -192.5 263.5t-59.5 342.5zM127 803q3 -196 63 -328q60 -138 179 -246q121 -103 249 -151.5t279 -50.5v166q-114 0 -227 47q-109 50 -181 122q-172 163 -178 441h-184zM205 784h24q0 -159 60 -288q57 -124 131 -195q79 -73 190 -121q57 -25 131.5 -42t135.5 -17 v-25q-137 0 -279 60q-124 58 -195 127q-87 84 -139 200q-59 133 -59 301zM893 1376v215h14q328 0 563 -235q233 -230 236 -553h-233q-3 241 -164 405q-168 168 -404 168h-12z" />
<glyph unicode="P" horiz-adv-x="999" d="M92 4v610h215v25h121q114 0 197 35q81 30 149 94q53 48 94 139q31 91 31 180q0 91 -29 173q-30 79 -90 139q-69 72 -155 96q-8 3 -18 5t-22.5 3.5t-23.5 2.5t-27.5 1.5t-27.5 1t-31 0.5h-30.5h-33h-32.5h-72v-184h70q164 0 246 -53q94 -60 94 -180q0 -121 -80 -185 q-74 -53 -227 -53h-103v25h103q146 0 213 49q69 51 69 164q0 208 -315 208h-70v25h-215v209h287h37h37.5h33.5t35.5 -1t30.5 -2t30.5 -2.5t24.5 -3.5t23 -5q91 -27 166 -105q125 -125 125 -328q0 -212 -134 -337q-65 -62 -153 -99q-86 -37 -207 -37h-121v-610h-215zM92 639 v213h215v-213h-215zM92 879v421h215v-421h-215zM328 729v25h137h18q61 0 109 17q54 20 104 67q34 36 49 57t25 51q27 69 27 144q0 72 -18 125.5t-66 101.5q-43 47 -125 72l2 12l-4 -12q-45 14 -189 14h-69v24h69q145 0 197 -14q92 -30 135 -78q90 -95 90 -245 q0 -170 -110 -271q-55 -53 -113.5 -71.5t-142.5 -18.5h-125z" />
<glyph unicode="Q" horiz-adv-x="1730" d="M23 786v13q0 340 239 567q114 107 248 161t303 58v-213q-253 -6 -405 -164q-156 -164 -156 -411v-6q3 -258 168 -412q172 -161 393 -164h10q135 0 254 61l162 -161q-188 -113 -408 -113h-18q-164 3 -294 51t-243 146q-120 106 -185 257t-68 330zM47 786q3 -172 67 -319 t181 -250q113 -96 235 -141q128 -44 283 -47v161q-236 3 -412 170q-168 160 -174 426h-180zM119 762h24q3 -130 52.5 -248t126.5 -192q98 -95 223 -146t246 -53v-27q-127 3 -275 64q-47 19 -107 60.5t-104 82.5q-183 196 -186 459zM752 625h292l230 -230l139 -141l6 -10 l250 -242h-287l-116 121l-160 160zM840 1372v213h18q288 0 514 -192q273 -234 273 -605v-2h-230v17q0 240 -160 405q-159 164 -401 164h-14zM1284 424q125 134 131 336h230q0 -277 -199 -498z" />
<glyph unicode="R" horiz-adv-x="1099" d="M88 4v598h221v-598h-221zM88 627v202h221v-202h-221zM88 852v444h221v25h129q163 0 236 -53q84 -57 84 -181q0 -210 -250 -274l110 -162q165 62 244 166q88 113 88 273q0 107 -35 184q-37 84 -104 143q-56 51 -156 73.5t-258 22.5h-88v-192h-221v219h309 q163 0 265.5 -24.5t164.5 -79.5q148 -133 148 -346q0 -168 -94 -287q-79 -110 -248 -172l438 -627h-272l-424 623h-39v202h70q19 0 86 5q123 30 182 92q61 64 61 161q0 109 -71.5 159t-225.5 50h-129v-444h-221zM330 1407v25h63h90.5t69 -3t71 -9t53.5 -17.5t60 -30.5 q61 -44 97 -120.5t36 -161.5q0 -134 -73 -228q-70 -91 -203 -137l-14 20l6 3q131 48 192 131q68 89 68 211q0 87 -33 149q-40 82 -92 115q-40 26 -89 37.5t-87.5 13.5t-123.5 2h-28h-63z" />
<glyph unicode="S" horiz-adv-x="1075" d="M57 469l244 55v-14q19 -130 51 -174q62 -92 185 -92q89 0 153 67q34 35 54 85.5t20 99.5q0 40 -10 73q-14 45 -35 68q-38 43 -72 63q-39 29 -207 113l-10 6q-295 126 -295 377q0 170 123 281q123 114 307 114q249 0 387 -252l-176 -106q-49 93 -92 115q-40 30 -119 30 q-91 0 -151 -51q-60 -54 -60 -133q0 -107 156 -176l145 -62q147 -60 226 -145q17 -17 41 -47q34 -48 58 -119t24 -149q0 -211 -138 -349q-138 -141 -338 -141q-187 0 -315 119q-124 121 -154 332zM86 449q28 -198 143 -304q117 -114 299 -114q96 0 177 35q80 30 145 98 q69 72 96 147q33 91 33 185q0 144 -74 254q-26 38 -61 61h-346q100 -50 159 -88q48 -30 80 -70q29 -42 39 -75q12 -38 12 -82q0 -54 -22 -109.5t-59 -93.5q-70 -76 -170 -76q-135 0 -203 102q-37 48 -55 175zM168 444l25 7q19 -145 104 -230q101 -94 242 -94 q70 0 136.5 33.5t119.5 87.5q80 99 80 235q0 18 -1 37q-8 96 -65 172q-37 54 -117 99h43q64 -44 92 -82q33 -46 49.5 -87t22.5 -102q2 -21 2 -42q0 -141 -90 -247q-126 -129 -272 -129q-147 0 -256 101q-53 52 -78 103.5t-37 137.5z" />
<glyph unicode="T" horiz-adv-x="1032" d="M45 1319v211h344v-211h25v-1288h227v1288h25v211h342v-211h-342v-1313h-277v1313h-344zM414 1319v211h227v-211h-227zM514 51v1252h25v-1252h-25z" />
<glyph unicode="U" horiz-adv-x="1212" d="M39 563v965h225v-899q0 -191 64 -283q85 -120 237 -129h21q81 0 145 37q66 37 109 98q61 85 61 277v911h250v-913q0 -178 -35 -278t-115 -183q-93 -90 -190 -125q-101 -37 -225 -37h-15q-228 9 -385 170q-147 153 -147 389zM571 29h15q119 0 217 37q103 38 180 118 q73 73 107 170q36 88 36 273v889h-200v-887q0 -200 -66 -291q-108 -145 -274 -145h-15v-164zM592 94v25q77 0 151.5 26t128.5 72q119 99 136 254q6 63 8 149q2 72 3 127q-1 11 -1 22q0 63 -2 182t-2 175q-1 47 -1 110.5t0.5 142t0.5 114.5h24q0 -36 -0.5 -114.5t-0.5 -142 t1 -110.5q0 -51 2 -174.5t2 -184.5q0 -9 1 -18q0 -57 -3 -131q-3 -88 -10 -151q-17 -162 -141 -270q-56 -47 -135.5 -75t-161.5 -28z" />
<glyph unicode="V" horiz-adv-x="1406" d="M33 1536h239l381 -942l408 942l301 -2l-565 -1266h2l-119 -276l-123 289l113 284l114 -266l539 1210l-244 2l-409 -946l-17 29l-110 -281zM733 483l445 1004h28l-456 -1038z" />
<glyph unicode="W" horiz-adv-x="2156" d="M68 1536h237l369 -936l399 1040l383 -1040l393 936h236l-529 -1241l-100 303l-14 -31l-369 1000l-387 -1004l-12 37l-115 -287zM575 276l111 287l98 -260l285 762l268 -743l105 245l98 -303l-110 -266l-103 276l-258 717l-270 -725l-107 -280zM735 494l336 858l318 -850 l-15 -37l-303 809l-321 -817z" />
<glyph unicode="X" horiz-adv-x="1351" d="M102 0l416 803l141 -248l15 27l8 -15l328 -542h221l-432 776l-127 -219l-135 243l133 195l129 -219l16 24l8 -12l451 -813h-279l-336 555l-264 -553zM125 1536h256l274 -492l-133 -194zM688 1042l293 494h256l-422 -711zM739 649l15 25l370 -629h-28z" />
<glyph unicode="Y" horiz-adv-x="1296" d="M29 1536h258l340 -602l-113 -242zM532 0v678l113 242l115 -244l6 -676h-234zM555 27h184v647h-184v-647zM631 49v604h24v-604h-24zM664 938l8 14l334 584h258l-486 -842z" />
<glyph unicode="Z" horiz-adv-x="1228" d="M55 4l121 211l600 1108h31l-602 -1108h217l602 1108h-217l119 211h248l-121 -211l-602 -1110l-29 2l-121 -211h-246zM170 1323v211h725l-119 -211h-606zM309 233l582 1070h29l-582 -1070h-29zM330 4l121 209h706v-209h-827z" />
<glyph unicode="[" horiz-adv-x="780" d="M221 -209v1847h195v-180h-154v-1487h154v-180h-195zM315 -6v1444h43v-1444h-43zM416 -29v1487h41v180h155v-180h-155v-1487h155v-180h-155v180h-41z" />
<glyph unicode="\" d="M92 1536l205 102l655 -1519l-204 -105zM121 1526l332 -772l165 88l-333 770zM205 1544l18 10l314 -729l-19 -8z" />
<glyph unicode="]" d="M360 -35h150v1493h-150v182h152v-182h37v-1493h-37v-180h-152v180zM549 -35h147v1493h-147v182h186v-1855h-186v180zM602 -14v1452h39v-1452h-39z" />
<glyph unicode="_" horiz-adv-x="1026" d="M57 4h934v-211h-934v211zM508 -23v-157h455v157h-455zM530 -88h410v-31h-410v31z" />
<glyph unicode="&#xa0;" />
<glyph unicode="&#xa1;" d="M358 1452q0 61 41 96q38 41 99 41q56 0 94 -41q39 -36 39 -96q0 -57 -39 -96q-38 -41 -94 -41q-64 0 -99 41q-41 38 -41 96zM383 8v627h29v-598h166v598h-195v588h223v-1215h-223zM479 59v553h29v-553h-29z" />
<glyph unicode="&#xad;" d="M205 612v205h485v-205h-485zM229 637h437v156h-437v-156zM252 700v25h393v-25h-393z" />
<glyph unicode="&#x2000;" horiz-adv-x="834" />
<glyph unicode="&#x2001;" horiz-adv-x="1669" />
<glyph unicode="&#x2002;" horiz-adv-x="834" />
<glyph unicode="&#x2003;" horiz-adv-x="1669" />
<glyph unicode="&#x2004;" horiz-adv-x="556" />
<glyph unicode="&#x2005;" horiz-adv-x="417" />
<glyph unicode="&#x2006;" horiz-adv-x="278" />
<glyph unicode="&#x2007;" horiz-adv-x="278" />
<glyph unicode="&#x2008;" horiz-adv-x="208" />
<glyph unicode="&#x2009;" horiz-adv-x="333" />
<glyph unicode="&#x200a;" horiz-adv-x="92" />
<glyph unicode="&#x2010;" d="M205 612v205h485v-205h-485zM229 637h437v156h-437v-156zM252 700v25h393v-25h-393z" />
<glyph unicode="&#x2011;" d="M205 612v205h485v-205h-485zM229 637h437v156h-437v-156zM252 700v25h393v-25h-393z" />
<glyph unicode="&#x2012;" d="M205 612v205h485v-205h-485zM229 637h437v156h-437v-156zM252 700v25h393v-25h-393z" />
<glyph unicode="&#x2013;" horiz-adv-x="1563" d="M205 612v205h1024v-205h-1024zM256 637h922v156h-922v-156zM304 700v25h830v-25h-830z" />
<glyph unicode="&#x2014;" horiz-adv-x="2587" d="M205 612v205h2048v-205h-2048zM306 637h1846v156h-1846v-156zM403 700v25h1660v-25h-1660z" />
<glyph unicode="&#x2018;" d="M397 1071l174 473l172 -67l-116 -226l-115 -227zM489 1270h123l101 194l-129 52zM543 1282l88 197l18 -9l-84 -188h-22z" />
<glyph unicode="&#x2019;" horiz-adv-x="411" d="M23 1090l124 245l103 207l115 -47l-80 -197l-92 -274zM49 1100l131 -49l82 247h-110zM106 1092l84 192h23l-86 -199z" />
<glyph unicode="&#x202f;" horiz-adv-x="333" />
<glyph unicode="&#x205f;" horiz-adv-x="417" />
<glyph unicode="&#x25fc;" d="M0 0z" />
</font>
</defs>
</svg>
